<?xml version="1.0" encoding="UTF-8"?>
<svg xmlns="http://www.w3.org/2000/svg" xmlns:xlink="http://www.w3.org/1999/xlink" width="5000" height="4500" viewBox="0 0 5000 4500">
<defs>
<clipPath id="clip-0">
<path clip-rule="nonzero" d="M 1987 4300 L 3020 4300 L 3020 4394 L 1987 4394 Z M 1987 4300 "/>
</clipPath>
<clipPath id="clip-1">
<path clip-rule="nonzero" d="M 2503.460938 4393.640625 C 2218.511719 4393.640625 1987.5 4372.828125 1987.5 4347.148438 C 1987.5 4321.46875 2218.511719 4300.660156 2503.460938 4300.660156 C 2788.421875 4300.660156 3019.441406 4321.46875 3019.441406 4347.148438 C 3019.441406 4372.828125 2788.421875 4393.640625 2503.460938 4393.640625 "/>
</clipPath>
<clipPath id="clip-2">
<path clip-rule="nonzero" d="M 2503.460938 4393.640625 C 2218.511719 4393.640625 1987.5 4372.828125 1987.5 4347.148438 C 1987.5 4321.46875 2218.511719 4300.660156 2503.460938 4300.660156 C 2788.421875 4300.660156 3019.441406 4321.46875 3019.441406 4347.148438 C 3019.441406 4372.828125 2788.421875 4393.640625 2503.460938 4393.640625 "/>
</clipPath>
<radialGradient id="radial-pattern-0" gradientUnits="userSpaceOnUse" cx="0" cy="0" fx="0" fy="0" r="281.2178" gradientTransform="matrix(1.834674, 0, 0, 0.165326, 2503.47, 4347.15)">
<stop offset="0" stop-color="rgb(59.002686%, 59.394836%, 59.313965%)" stop-opacity="1"/>
<stop offset="0.0078125" stop-color="rgb(59.121704%, 59.632874%, 59.577942%)" stop-opacity="1"/>
<stop offset="0.0117188" stop-color="rgb(59.20105%, 59.791565%, 59.753418%)" stop-opacity="1"/>
<stop offset="0.015625" stop-color="rgb(59.346008%, 59.94873%, 59.941101%)" stop-opacity="1"/>
<stop offset="0.0195312" stop-color="rgb(59.562683%, 60.10437%, 60.139465%)" stop-opacity="1"/>
<stop offset="0.0234375" stop-color="rgb(59.785461%, 60.26001%, 60.340881%)" stop-opacity="1"/>
<stop offset="0.0273438" stop-color="rgb(60.005188%, 60.414124%, 60.540771%)" stop-opacity="1"/>
<stop offset="0.03125" stop-color="rgb(60.206604%, 60.546875%, 60.688782%)" stop-opacity="1"/>
<stop offset="0.0351562" stop-color="rgb(60.380554%, 60.652161%, 60.777283%)" stop-opacity="1"/>
<stop offset="0.0390625" stop-color="rgb(60.552979%, 60.75592%, 60.85968%)" stop-opacity="1"/>
<stop offset="0.0429688" stop-color="rgb(60.723877%, 60.85968%, 60.942078%)" stop-opacity="1"/>
<stop offset="0.046875" stop-color="rgb(60.894775%, 60.992432%, 61.062622%)" stop-opacity="1"/>
<stop offset="0.0507812" stop-color="rgb(61.064148%, 61.16333%, 61.227417%)" stop-opacity="1"/>
<stop offset="0.0546875" stop-color="rgb(61.233521%, 61.341858%, 61.404419%)" stop-opacity="1"/>
<stop offset="0.0585938" stop-color="rgb(61.402893%, 61.51886%, 61.579895%)" stop-opacity="1"/>
<stop offset="0.0625" stop-color="rgb(61.572266%, 61.697388%, 61.732483%)" stop-opacity="1"/>
<stop offset="0.0664062" stop-color="rgb(61.743164%, 61.875916%, 61.849976%)" stop-opacity="1"/>
<stop offset="0.0703125" stop-color="rgb(61.912537%, 62.054443%, 61.959839%)" stop-opacity="1"/>
<stop offset="0.0742188" stop-color="rgb(62.083435%, 62.234497%, 62.069702%)" stop-opacity="1"/>
<stop offset="0.078125" stop-color="rgb(62.243652%, 62.402344%, 62.216187%)" stop-opacity="1"/>
<stop offset="0.0820312" stop-color="rgb(62.387085%, 62.553406%, 62.411499%)" stop-opacity="1"/>
<stop offset="0.0859375" stop-color="rgb(62.524414%, 62.698364%, 62.625122%)" stop-opacity="1"/>
<stop offset="0.0898438" stop-color="rgb(62.661743%, 62.843323%, 62.837219%)" stop-opacity="1"/>
<stop offset="0.09375" stop-color="rgb(62.837219%, 63.005066%, 63.038635%)" stop-opacity="1"/>
<stop offset="0.0976562" stop-color="rgb(63.07373%, 63.194275%, 63.221741%)" stop-opacity="1"/>
<stop offset="0.101562" stop-color="rgb(63.334656%, 63.392639%, 63.398743%)" stop-opacity="1"/>
<stop offset="0.105469" stop-color="rgb(63.595581%, 63.592529%, 63.577271%)" stop-opacity="1"/>
<stop offset="0.109375" stop-color="rgb(63.830566%, 63.809204%, 63.764954%)" stop-opacity="1"/>
<stop offset="0.113281" stop-color="rgb(64.022827%, 64.054871%, 63.969421%)" stop-opacity="1"/>
<stop offset="0.117188" stop-color="rgb(64.1922%, 64.31427%, 64.179993%)" stop-opacity="1"/>
<stop offset="0.121094" stop-color="rgb(64.364624%, 64.575195%, 64.39209%)" stop-opacity="1"/>
<stop offset="0.125" stop-color="rgb(64.558411%, 64.822388%, 64.596558%)" stop-opacity="1"/>
<stop offset="0.128906" stop-color="rgb(64.797974%, 65.040588%, 64.787292%)" stop-opacity="1"/>
<stop offset="0.132812" stop-color="rgb(65.060425%, 65.245056%, 64.968872%)" stop-opacity="1"/>
<stop offset="0.136719" stop-color="rgb(65.324402%, 65.449524%, 65.153503%)" stop-opacity="1"/>
<stop offset="0.140625" stop-color="rgb(65.568542%, 65.65094%, 65.338135%)" stop-opacity="1"/>
<stop offset="0.144531" stop-color="rgb(65.769958%, 65.846252%, 65.525818%)" stop-opacity="1"/>
<stop offset="0.148438" stop-color="rgb(65.943909%, 66.033936%, 65.715027%)" stop-opacity="1"/>
<stop offset="0.152344" stop-color="rgb(66.119385%, 66.22467%, 65.905762%)" stop-opacity="1"/>
<stop offset="0.15625" stop-color="rgb(66.294861%, 66.400146%, 66.078186%)" stop-opacity="1"/>
<stop offset="0.160156" stop-color="rgb(66.471863%, 66.537476%, 66.200256%)" stop-opacity="1"/>
<stop offset="0.164062" stop-color="rgb(66.648865%, 66.651917%, 66.293335%)" stop-opacity="1"/>
<stop offset="0.167969" stop-color="rgb(66.827393%, 66.764832%, 66.384888%)" stop-opacity="1"/>
<stop offset="0.171875" stop-color="rgb(67.004395%, 66.888428%, 66.491699%)" stop-opacity="1"/>
<stop offset="0.175781" stop-color="rgb(67.181396%, 67.054749%, 66.650391%)" stop-opacity="1"/>
<stop offset="0.179688" stop-color="rgb(67.356873%, 67.245483%, 66.842651%)" stop-opacity="1"/>
<stop offset="0.183594" stop-color="rgb(67.5354%, 67.43927%, 67.036438%)" stop-opacity="1"/>
<stop offset="0.1875" stop-color="rgb(67.710876%, 67.631531%, 67.230225%)" stop-opacity="1"/>
<stop offset="0.191406" stop-color="rgb(67.889404%, 67.825317%, 67.425537%)" stop-opacity="1"/>
<stop offset="0.195312" stop-color="rgb(68.06488%, 68.019104%, 67.62085%)" stop-opacity="1"/>
<stop offset="0.199219" stop-color="rgb(68.243408%, 68.214417%, 67.817688%)" stop-opacity="1"/>
<stop offset="0.203125" stop-color="rgb(68.42041%, 68.408203%, 68.013%)" stop-opacity="1"/>
<stop offset="0.207031" stop-color="rgb(68.598938%, 68.603516%, 68.211365%)" stop-opacity="1"/>
<stop offset="0.210938" stop-color="rgb(68.77594%, 68.798828%, 68.408203%)" stop-opacity="1"/>
<stop offset="0.214844" stop-color="rgb(68.955994%, 68.995667%, 68.606567%)" stop-opacity="1"/>
<stop offset="0.21875" stop-color="rgb(69.128418%, 69.186401%, 68.803406%)" stop-opacity="1"/>
<stop offset="0.222656" stop-color="rgb(69.258118%, 69.329834%, 68.989563%)" stop-opacity="1"/>
<stop offset="0.226562" stop-color="rgb(69.346619%, 69.430542%, 69.163513%)" stop-opacity="1"/>
<stop offset="0.230469" stop-color="rgb(69.436646%, 69.529724%, 69.337463%)" stop-opacity="1"/>
<stop offset="0.234375" stop-color="rgb(69.526672%, 69.631958%, 69.509888%)" stop-opacity="1"/>
<stop offset="0.238281" stop-color="rgb(69.664001%, 69.78302%, 69.659424%)" stop-opacity="1"/>
<stop offset="0.242188" stop-color="rgb(69.842529%, 69.979858%, 69.787598%)" stop-opacity="1"/>
<stop offset="0.246094" stop-color="rgb(70.024109%, 70.178223%, 69.915771%)" stop-opacity="1"/>
<stop offset="0.25" stop-color="rgb(70.202637%, 70.375061%, 70.043945%)" stop-opacity="1"/>
<stop offset="0.253906" stop-color="rgb(70.474243%, 70.594788%, 70.207214%)" stop-opacity="1"/>
<stop offset="0.261719" stop-color="rgb(70.835876%, 70.834351%, 70.405579%)" stop-opacity="1"/>
<stop offset="0.269531" stop-color="rgb(71.19751%, 71.153259%, 70.704651%)" stop-opacity="1"/>
<stop offset="0.277344" stop-color="rgb(71.559143%, 71.554565%, 71.113586%)" stop-opacity="1"/>
<stop offset="0.285156" stop-color="rgb(71.922302%, 71.885681%, 71.499634%)" stop-opacity="1"/>
<stop offset="0.292969" stop-color="rgb(72.285461%, 72.138977%, 71.856689%)" stop-opacity="1"/>
<stop offset="0.300781" stop-color="rgb(72.650146%, 72.45636%, 72.172546%)" stop-opacity="1"/>
<stop offset="0.308594" stop-color="rgb(73.014832%, 72.85614%, 72.444153%)" stop-opacity="1"/>
<stop offset="0.316406" stop-color="rgb(73.381042%, 73.196411%, 72.75238%)" stop-opacity="1"/>
<stop offset="0.324219" stop-color="rgb(73.745728%, 73.458862%, 73.109436%)" stop-opacity="1"/>
<stop offset="0.332031" stop-color="rgb(74.113464%, 73.777771%, 73.434448%)" stop-opacity="1"/>
<stop offset="0.339844" stop-color="rgb(74.481201%, 74.177551%, 73.71521%)" stop-opacity="1"/>
<stop offset="0.347656" stop-color="rgb(74.848938%, 74.526978%, 73.965454%)" stop-opacity="1"/>
<stop offset="0.355469" stop-color="rgb(75.216675%, 74.795532%, 74.183655%)" stop-opacity="1"/>
<stop offset="0.363281" stop-color="rgb(75.585938%, 75.112915%, 74.481201%)" stop-opacity="1"/>
<stop offset="0.371094" stop-color="rgb(75.956726%, 75.517273%, 74.891663%)" stop-opacity="1"/>
<stop offset="0.378906" stop-color="rgb(76.25885%, 75.863647%, 75.306702%)" stop-opacity="1"/>
<stop offset="0.386719" stop-color="rgb(76.469421%, 76.107788%, 75.692749%)" stop-opacity="1"/>
<stop offset="0.394531" stop-color="rgb(76.646423%, 76.296997%, 75.965881%)" stop-opacity="1"/>
<stop offset="0.398438" stop-color="rgb(76.870728%, 76.493835%, 76.123047%)" stop-opacity="1"/>
<stop offset="0.402344" stop-color="rgb(77.148438%, 76.728821%, 76.264954%)" stop-opacity="1"/>
<stop offset="0.40625" stop-color="rgb(77.427673%, 76.963806%, 76.40686%)" stop-opacity="1"/>
<stop offset="0.410156" stop-color="rgb(77.723694%, 77.288818%, 76.675415%)" stop-opacity="1"/>
<stop offset="0.417969" stop-color="rgb(77.973938%, 77.690125%, 77.099609%)" stop-opacity="1"/>
<stop offset="0.425781" stop-color="rgb(78.222656%, 78.038025%, 77.478027%)" stop-opacity="1"/>
<stop offset="0.433594" stop-color="rgb(78.564453%, 78.323364%, 77.74353%)" stop-opacity="1"/>
<stop offset="0.441406" stop-color="rgb(78.938293%, 78.640747%, 78.039551%)" stop-opacity="1"/>
<stop offset="0.449219" stop-color="rgb(79.315186%, 79.046631%, 78.453064%)" stop-opacity="1"/>
<stop offset="0.457031" stop-color="rgb(79.692078%, 79.43573%, 78.845215%)" stop-opacity="1"/>
<stop offset="0.464844" stop-color="rgb(80.06897%, 79.740906%, 79.124451%)" stop-opacity="1"/>
<stop offset="0.472656" stop-color="rgb(80.444336%, 80.056763%, 79.418945%)" stop-opacity="1"/>
<stop offset="0.480469" stop-color="rgb(80.82428%, 80.462646%, 79.832458%)" stop-opacity="1"/>
<stop offset="0.488281" stop-color="rgb(81.20575%, 80.909729%, 80.300903%)" stop-opacity="1"/>
<stop offset="0.496094" stop-color="rgb(81.587219%, 81.358337%, 80.770874%)" stop-opacity="1"/>
<stop offset="0.503906" stop-color="rgb(81.874084%, 81.695557%, 81.124878%)" stop-opacity="1"/>
<stop offset="0.507812" stop-color="rgb(82.064819%, 81.880188%, 81.34613%)" stop-opacity="1"/>
<stop offset="0.511719" stop-color="rgb(82.252502%, 82.022095%, 81.549072%)" stop-opacity="1"/>
<stop offset="0.515625" stop-color="rgb(82.443237%, 82.162476%, 81.752014%)" stop-opacity="1"/>
<stop offset="0.519531" stop-color="rgb(82.63092%, 82.302856%, 81.954956%)" stop-opacity="1"/>
<stop offset="0.523438" stop-color="rgb(82.873535%, 82.543945%, 82.240295%)" stop-opacity="1"/>
<stop offset="0.535156" stop-color="rgb(83.071899%, 82.774353%, 82.485962%)" stop-opacity="1"/>
<stop offset="0.539062" stop-color="rgb(83.209229%, 82.93457%, 82.621765%)" stop-opacity="1"/>
<stop offset="0.542969" stop-color="rgb(83.39386%, 83.151245%, 82.777405%)" stop-opacity="1"/>
<stop offset="0.546875" stop-color="rgb(83.587646%, 83.378601%, 82.93457%)" stop-opacity="1"/>
<stop offset="0.550781" stop-color="rgb(83.779907%, 83.604431%, 83.091736%)" stop-opacity="1"/>
<stop offset="0.554688" stop-color="rgb(83.972168%, 83.798218%, 83.236694%)" stop-opacity="1"/>
<stop offset="0.558594" stop-color="rgb(84.162903%, 83.94928%, 83.364868%)" stop-opacity="1"/>
<stop offset="0.5625" stop-color="rgb(84.353638%, 84.089661%, 83.486938%)" stop-opacity="1"/>
<stop offset="0.566406" stop-color="rgb(84.544373%, 84.230042%, 83.610535%)" stop-opacity="1"/>
<stop offset="0.570312" stop-color="rgb(84.736633%, 84.402466%, 83.778381%)" stop-opacity="1"/>
<stop offset="0.574219" stop-color="rgb(84.928894%, 84.620667%, 84.005737%)" stop-opacity="1"/>
<stop offset="0.578125" stop-color="rgb(85.124207%, 84.854126%, 84.251404%)" stop-opacity="1"/>
<stop offset="0.582031" stop-color="rgb(85.317993%, 85.08606%, 84.498596%)" stop-opacity="1"/>
<stop offset="0.585938" stop-color="rgb(85.513306%, 85.290527%, 84.706116%)" stop-opacity="1"/>
<stop offset="0.589844" stop-color="rgb(85.704041%, 85.449219%, 84.854126%)" stop-opacity="1"/>
<stop offset="0.59375" stop-color="rgb(85.896301%, 85.592651%, 84.979248%)" stop-opacity="1"/>
<stop offset="0.597656" stop-color="rgb(86.087036%, 85.734558%, 85.10437%)" stop-opacity="1"/>
<stop offset="0.601562" stop-color="rgb(86.347961%, 85.987854%, 85.354614%)" stop-opacity="1"/>
<stop offset="0.613281" stop-color="rgb(86.564636%, 86.228943%, 85.606384%)" stop-opacity="1"/>
<stop offset="0.617188" stop-color="rgb(86.688232%, 86.378479%, 85.765076%)" stop-opacity="1"/>
<stop offset="0.621094" stop-color="rgb(86.860657%, 86.585999%, 85.984802%)" stop-opacity="1"/>
<stop offset="0.625" stop-color="rgb(87.057495%, 86.82251%, 86.238098%)" stop-opacity="1"/>
<stop offset="0.628906" stop-color="rgb(87.350464%, 87.158203%, 86.58905%)" stop-opacity="1"/>
<stop offset="0.636719" stop-color="rgb(87.739563%, 87.519836%, 86.943054%)" stop-opacity="1"/>
<stop offset="0.644531" stop-color="rgb(88.1073%, 87.823486%, 87.210083%)" stop-opacity="1"/>
<stop offset="0.652344" stop-color="rgb(88.38501%, 88.192749%, 87.512207%)" stop-opacity="1"/>
<stop offset="0.660156" stop-color="rgb(88.589478%, 88.597107%, 87.852478%)" stop-opacity="1"/>
<stop offset="0.667969" stop-color="rgb(88.792419%, 88.917542%, 88.246155%)" stop-opacity="1"/>
<stop offset="0.675781" stop-color="rgb(89.002991%, 89.167786%, 88.668823%)" stop-opacity="1"/>
<stop offset="0.683594" stop-color="rgb(89.309692%, 89.445496%, 89.009094%)" stop-opacity="1"/>
<stop offset="0.691406" stop-color="rgb(89.697266%, 89.741516%, 89.274597%)" stop-opacity="1"/>
<stop offset="0.699219" stop-color="rgb(90.084839%, 90.040588%, 89.543152%)" stop-opacity="1"/>
<stop offset="0.707031" stop-color="rgb(90.466309%, 90.344238%, 89.813232%)" stop-opacity="1"/>
<stop offset="0.714844" stop-color="rgb(90.760803%, 90.711975%, 90.12146%)" stop-opacity="1"/>
<stop offset="0.722656" stop-color="rgb(90.9729%, 91.136169%, 90.466309%)" stop-opacity="1"/>
<stop offset="0.730469" stop-color="rgb(91.27655%, 91.505432%, 90.866089%)" stop-opacity="1"/>
<stop offset="0.738281" stop-color="rgb(91.665649%, 91.815186%, 91.317749%)" stop-opacity="1"/>
<stop offset="0.746094" stop-color="rgb(92.062378%, 92.219543%, 91.815186%)" stop-opacity="1"/>
<stop offset="0.761719" stop-color="rgb(92.358398%, 92.54303%, 92.152405%)" stop-opacity="1"/>
<stop offset="0.765625" stop-color="rgb(92.552185%, 92.697144%, 92.292786%)" stop-opacity="1"/>
<stop offset="0.769531" stop-color="rgb(92.749023%, 92.849731%, 92.430115%)" stop-opacity="1"/>
<stop offset="0.773438" stop-color="rgb(92.944336%, 93.002319%, 92.56897%)" stop-opacity="1"/>
<stop offset="0.777344" stop-color="rgb(93.09845%, 93.145752%, 92.747498%)" stop-opacity="1"/>
<stop offset="0.78125" stop-color="rgb(93.205261%, 93.276978%, 92.970276%)" stop-opacity="1"/>
<stop offset="0.785156" stop-color="rgb(93.305969%, 93.406677%, 93.197632%)" stop-opacity="1"/>
<stop offset="0.789062" stop-color="rgb(93.406677%, 93.534851%, 93.424988%)" stop-opacity="1"/>
<stop offset="0.792969" stop-color="rgb(93.545532%, 93.675232%, 93.618774%)" stop-opacity="1"/>
<stop offset="0.796875" stop-color="rgb(93.734741%, 93.829346%, 93.768311%)" stop-opacity="1"/>
<stop offset="0.800781" stop-color="rgb(93.93158%, 93.983459%, 93.908691%)" stop-opacity="1"/>
<stop offset="0.804688" stop-color="rgb(94.128418%, 94.137573%, 94.049072%)" stop-opacity="1"/>
<stop offset="0.808594" stop-color="rgb(94.325256%, 94.294739%, 94.226074%)" stop-opacity="1"/>
<stop offset="0.8125" stop-color="rgb(94.522095%, 94.454956%, 94.450378%)" stop-opacity="1"/>
<stop offset="0.816406" stop-color="rgb(94.818115%, 94.694519%, 94.802856%)" stop-opacity="1"/>
<stop offset="0.824219" stop-color="rgb(95.217896%, 95.091248%, 95.231628%)" stop-opacity="1"/>
<stop offset="0.832031" stop-color="rgb(95.623779%, 95.581055%, 95.610046%)" stop-opacity="1"/>
<stop offset="0.839844" stop-color="rgb(95.947266%, 95.982361%, 95.94574%)" stop-opacity="1"/>
<stop offset="0.847656" stop-color="rgb(96.273804%, 96.391296%, 96.376038%)" stop-opacity="1"/>
<stop offset="0.863281" stop-color="rgb(96.682739%, 96.907043%, 96.940613%)" stop-opacity="1"/>
<stop offset="0.878906" stop-color="rgb(97.061157%, 97.343445%, 97.407532%)" stop-opacity="1"/>
<stop offset="0.890625" stop-color="rgb(97.331238%, 97.55249%, 97.595215%)" stop-opacity="1"/>
<stop offset="0.894531" stop-color="rgb(97.523499%, 97.613525%, 97.605896%)" stop-opacity="1"/>
<stop offset="0.898438" stop-color="rgb(97.715759%, 97.673035%, 97.616577%)" stop-opacity="1"/>
<stop offset="0.902344" stop-color="rgb(97.993469%, 97.879028%, 97.796631%)" stop-opacity="1"/>
<stop offset="0.914062" stop-color="rgb(98.278809%, 98.184204%, 98.11554%)" stop-opacity="1"/>
<stop offset="0.921875" stop-color="rgb(98.484802%, 98.443604%, 98.400879%)" stop-opacity="1"/>
<stop offset="0.929688" stop-color="rgb(98.794556%, 98.83728%, 98.834229%)" stop-opacity="1"/>
<stop offset="0.945312" stop-color="rgb(99.156189%, 99.29657%, 99.339294%)" stop-opacity="1"/>
<stop offset="0.957031" stop-color="rgb(99.414062%, 99.62616%, 99.702454%)" stop-opacity="1"/>
<stop offset="0.964844" stop-color="rgb(99.714661%, 99.865723%, 99.92218%)" stop-opacity="1"/>
<stop offset="0.980469" stop-color="rgb(99.95575%, 99.984741%, 99.996948%)" stop-opacity="1"/>
<stop offset="1" stop-color="rgb(100%, 100%, 100%)" stop-opacity="1"/>
</radialGradient>
</defs>
<path fill-rule="nonzero" fill="rgb(12.860107%, 11.213684%, 11.195374%)" fill-opacity="1" d="M 1844.53125 197.761719 C 1844.53125 211.039062 1847.328125 220.96875 1852.929688 227.550781 C 1858.53125 234.121094 1865.140625 237.410156 1872.75 237.410156 C 1880.441406 237.410156 1886.960938 234.269531 1892.328125 227.988281 C 1897.710938 221.699219 1900.390625 212.121094 1900.390625 199.230469 C 1900.390625 185.03125 1897.660156 174.621094 1892.191406 167.980469 C 1886.71875 161.339844 1879.980469 158.019531 1871.96875 158.019531 C 1864.160156 158.019531 1857.628906 161.210938 1852.390625 167.589844 C 1847.148438 173.96875 1844.53125 184.03125 1844.53125 197.761719 Z M 1900.101562 249.519531 L 1900.101562 236.429688 C 1893.519531 246.71875 1883.851562 251.859375 1871.089844 251.859375 C 1862.828125 251.859375 1855.21875 249.578125 1848.289062 245.03125 C 1841.359375 240.46875 1835.988281 234.109375 1832.179688 225.941406 C 1828.371094 217.769531 1826.460938 208.371094 1826.460938 197.761719 C 1826.460938 187.410156 1828.191406 178.019531 1831.640625 169.589844 C 1835.089844 161.160156 1840.269531 154.691406 1847.171875 150.199219 C 1854.070312 145.710938 1861.78125 143.460938 1870.308594 143.460938 C 1876.558594 143.460938 1882.128906 144.78125 1887.011719 147.421875 C 1891.890625 150.058594 1895.859375 153.488281 1898.929688 157.71875 L 1898.929688 106.359375 L 1916.410156 106.359375 L 1916.410156 249.519531 L 1900.101562 249.519531 "/>
<path fill-rule="nonzero" fill="rgb(12.860107%, 11.213684%, 11.195374%)" fill-opacity="1" d="M 2010.25 197.46875 C 2003.871094 200.070312 1994.300781 202.289062 1981.539062 204.109375 C 1974.320312 205.148438 1969.199219 206.320312 1966.210938 207.621094 C 1963.21875 208.929688 1960.898438 210.828125 1959.28125 213.339844 C 1957.648438 215.839844 1956.839844 218.628906 1956.839844 221.691406 C 1956.839844 226.371094 1958.609375 230.28125 1962.160156 233.410156 C 1965.710938 236.53125 1970.898438 238.089844 1977.730469 238.089844 C 1984.5 238.089844 1990.53125 236.609375 1995.800781 233.648438 C 2001.070312 230.691406 2004.949219 226.640625 2007.421875 221.488281 C 2009.308594 217.519531 2010.25 211.660156 2010.25 203.910156 Z M 2011.71875 236.730469 C 2005.210938 242.261719 1998.941406 246.171875 1992.921875 248.441406 C 1986.898438 250.71875 1980.441406 251.859375 1973.539062 251.859375 C 1962.140625 251.859375 1953.378906 249.078125 1947.269531 243.511719 C 1941.148438 237.949219 1938.089844 230.839844 1938.089844 222.179688 C 1938.089844 217.101562 1939.238281 212.460938 1941.550781 208.261719 C 1943.859375 204.058594 1946.890625 200.691406 1950.628906 198.148438 C 1954.378906 195.609375 1958.589844 193.691406 1963.28125 192.390625 C 1966.730469 191.480469 1971.941406 190.601562 1978.910156 189.75 C 1993.101562 188.058594 2003.550781 186.039062 2010.25 183.699219 C 2010.320312 181.289062 2010.351562 179.761719 2010.351562 179.109375 C 2010.351562 171.949219 2008.691406 166.898438 2005.371094 163.96875 C 2000.878906 160 1994.199219 158.019531 1985.351562 158.019531 C 1977.078125 158.019531 1970.980469 159.460938 1967.039062 162.359375 C 1963.101562 165.261719 1960.191406 170.390625 1958.300781 177.738281 L 1941.109375 175.398438 C 1942.679688 168.039062 1945.25 162.101562 1948.828125 157.578125 C 1952.410156 153.050781 1957.578125 149.570312 1964.359375 147.128906 C 1971.128906 144.691406 1978.96875 143.460938 1987.890625 143.460938 C 1996.738281 143.460938 2003.941406 144.511719 2009.46875 146.589844 C 2015.011719 148.671875 2019.078125 151.289062 2021.679688 154.449219 C 2024.28125 157.609375 2026.109375 161.601562 2027.148438 166.410156 C 2027.730469 169.410156 2028.03125 174.808594 2028.03125 182.621094 L 2028.03125 206.058594 C 2028.03125 222.410156 2028.398438 232.738281 2029.148438 237.070312 C 2029.898438 241.398438 2031.378906 245.550781 2033.589844 249.519531 L 2015.230469 249.519531 C 2013.410156 245.871094 2012.238281 241.609375 2011.71875 236.730469 "/>
<path fill-rule="nonzero" fill="rgb(12.860107%, 11.213684%, 11.195374%)" fill-opacity="1" d="M 2048.238281 218.558594 L 2065.628906 215.828125 C 2066.601562 222.789062 2069.320312 228.128906 2073.78125 231.839844 C 2078.238281 235.558594 2084.46875 237.410156 2092.480469 237.410156 C 2100.550781 237.410156 2106.539062 235.769531 2110.449219 232.480469 C 2114.359375 229.191406 2116.308594 225.328125 2116.308594 220.910156 C 2116.308594 216.941406 2114.578125 213.808594 2111.128906 211.53125 C 2108.71875 209.96875 2102.730469 207.980469 2093.160156 205.570312 C 2080.269531 202.320312 2071.339844 199.5 2066.359375 197.128906 C 2061.378906 194.75 2057.601562 191.460938 2055.03125 187.261719 C 2052.460938 183.058594 2051.171875 178.429688 2051.171875 173.351562 C 2051.171875 168.730469 2052.230469 164.449219 2054.351562 160.511719 C 2056.460938 156.570312 2059.339844 153.300781 2062.988281 150.691406 C 2065.71875 148.671875 2069.449219 146.960938 2074.171875 145.558594 C 2078.890625 144.160156 2083.949219 143.460938 2089.359375 143.460938 C 2097.488281 143.460938 2104.640625 144.640625 2110.789062 146.980469 C 2116.941406 149.320312 2121.480469 152.5 2124.410156 156.5 C 2127.339844 160.511719 2129.359375 165.859375 2130.46875 172.570312 L 2113.28125 174.910156 C 2112.5 169.570312 2110.238281 165.410156 2106.488281 162.410156 C 2102.75 159.421875 2097.460938 157.921875 2090.628906 157.921875 C 2082.550781 157.921875 2076.789062 159.25 2073.339844 161.921875 C 2069.890625 164.589844 2068.160156 167.71875 2068.160156 171.300781 C 2068.160156 173.578125 2068.878906 175.628906 2070.308594 177.449219 C 2071.738281 179.339844 2073.988281 180.898438 2077.050781 182.140625 C 2078.808594 182.789062 2083.980469 184.289062 2092.578125 186.628906 C 2105.011719 189.949219 2113.691406 192.671875 2118.601562 194.78125 C 2123.519531 196.898438 2127.378906 199.980469 2130.179688 204.011719 C 2132.96875 208.050781 2134.378906 213.058594 2134.378906 219.050781 C 2134.378906 224.910156 2132.671875 230.429688 2129.25 235.601562 C 2125.828125 240.78125 2120.898438 244.78125 2114.449219 247.609375 C 2108.011719 250.449219 2100.71875 251.859375 2092.578125 251.859375 C 2079.101562 251.859375 2068.828125 249.058594 2061.769531 243.460938 C 2054.699219 237.871094 2050.199219 229.558594 2048.238281 218.558594 "/>
<path fill-rule="nonzero" fill="rgb(12.860107%, 11.213684%, 11.195374%)" fill-opacity="1" d="M 2155.269531 249.519531 L 2155.269531 106.359375 L 2172.851562 106.359375 L 2172.851562 157.71875 C 2181.050781 148.21875 2191.410156 143.460938 2203.910156 143.460938 C 2211.589844 143.460938 2218.261719 144.980469 2223.929688 148.011719 C 2229.589844 151.03125 2233.640625 155.21875 2236.078125 160.558594 C 2238.53125 165.890625 2239.75 173.640625 2239.75 183.800781 L 2239.75 249.519531 L 2222.171875 249.519531 L 2222.171875 183.800781 C 2222.171875 175.011719 2220.261719 168.609375 2216.460938 164.609375 C 2212.648438 160.601562 2207.261719 158.601562 2200.289062 158.601562 C 2195.078125 158.601562 2190.191406 159.949219 2185.601562 162.648438 C 2181.011719 165.359375 2177.730469 169.019531 2175.78125 173.640625 C 2173.828125 178.261719 2172.851562 184.640625 2172.851562 192.78125 L 2172.851562 249.519531 L 2155.269531 249.519531 "/>
<path fill-rule="nonzero" fill="rgb(12.860107%, 11.213684%, 11.195374%)" fill-opacity="1" d="M 2282.519531 196.878906 C 2282.519531 209.320312 2284.210938 218.300781 2287.601562 223.839844 C 2293.128906 232.890625 2300.621094 237.410156 2310.058594 237.410156 C 2317.738281 237.410156 2324.378906 234.070312 2329.980469 227.398438 C 2335.578125 220.730469 2338.378906 210.78125 2338.378906 197.570312 C 2338.378906 184.03125 2335.691406 174.03125 2330.320312 167.589844 C 2324.949219 161.140625 2318.460938 157.921875 2310.839844 157.921875 C 2303.160156 157.921875 2296.519531 161.261719 2290.921875 167.929688 C 2285.320312 174.601562 2282.519531 184.25 2282.519531 196.878906 Z M 2282.710938 249.519531 L 2266.410156 249.519531 L 2266.410156 106.359375 L 2283.980469 106.359375 L 2283.980469 157.429688 C 2291.410156 148.121094 2300.878906 143.460938 2312.398438 143.460938 C 2318.78125 143.460938 2324.820312 144.75 2330.519531 147.320312 C 2336.210938 149.890625 2340.898438 153.511719 2344.578125 158.160156 C 2348.261719 162.820312 2351.140625 168.429688 2353.21875 175.011719 C 2355.308594 181.578125 2356.351562 188.621094 2356.351562 196.101562 C 2356.351562 213.871094 2351.949219 227.609375 2343.160156 237.308594 C 2334.378906 247.011719 2323.828125 251.859375 2311.519531 251.859375 C 2299.28125 251.859375 2289.679688 246.75 2282.710938 236.53125 L 2282.710938 249.519531 "/>
<path fill-rule="nonzero" fill="rgb(12.860107%, 11.213684%, 11.195374%)" fill-opacity="1" d="M 2389.261719 197.660156 C 2389.261719 210.941406 2392.148438 220.890625 2397.949219 227.5 C 2403.738281 234.109375 2411.039062 237.410156 2419.820312 237.410156 C 2428.550781 237.410156 2435.808594 234.089844 2441.601562 227.449219 C 2447.398438 220.808594 2450.289062 210.691406 2450.289062 197.078125 C 2450.289062 184.25 2447.378906 174.539062 2441.550781 167.929688 C 2435.730469 161.320312 2428.480469 158.019531 2419.820312 158.019531 C 2411.039062 158.019531 2403.738281 161.300781 2397.949219 167.878906 C 2392.148438 174.460938 2389.261719 184.378906 2389.261719 197.660156 Z M 2371.191406 197.660156 C 2371.191406 178.460938 2376.53125 164.230469 2387.210938 154.988281 C 2396.128906 147.308594 2407 143.460938 2419.820312 143.460938 C 2434.078125 143.460938 2445.738281 148.140625 2454.789062 157.480469 C 2463.828125 166.820312 2468.359375 179.730469 2468.359375 196.199219 C 2468.359375 209.550781 2466.359375 220.039062 2462.351562 227.691406 C 2458.351562 235.339844 2452.519531 241.28125 2444.871094 245.519531 C 2437.21875 249.75 2428.871094 251.859375 2419.820312 251.859375 C 2405.308594 251.859375 2393.570312 247.210938 2384.621094 237.898438 C 2375.671875 228.589844 2371.191406 215.179688 2371.191406 197.660156 "/>
<path fill-rule="nonzero" fill="rgb(12.860107%, 11.213684%, 11.195374%)" fill-opacity="1" d="M 2555.179688 197.46875 C 2548.789062 200.070312 2539.21875 202.289062 2526.460938 204.109375 C 2519.238281 205.148438 2514.128906 206.320312 2511.128906 207.621094 C 2508.140625 208.929688 2505.828125 210.828125 2504.199219 213.339844 C 2502.570312 215.839844 2501.761719 218.628906 2501.761719 221.691406 C 2501.761719 226.371094 2503.53125 230.28125 2507.078125 233.410156 C 2510.628906 236.53125 2515.820312 238.089844 2522.660156 238.089844 C 2529.429688 238.089844 2535.449219 236.609375 2540.71875 233.648438 C 2546 230.691406 2549.871094 226.640625 2552.339844 221.488281 C 2554.230469 217.519531 2555.179688 211.660156 2555.179688 203.910156 Z M 2556.640625 236.730469 C 2550.128906 242.261719 2543.859375 246.171875 2537.839844 248.441406 C 2531.820312 250.71875 2525.359375 251.859375 2518.460938 251.859375 C 2507.058594 251.859375 2498.308594 249.078125 2492.191406 243.511719 C 2486.070312 237.949219 2483.011719 230.839844 2483.011719 222.179688 C 2483.011719 217.101562 2484.160156 212.460938 2486.46875 208.261719 C 2488.78125 204.058594 2491.808594 200.691406 2495.558594 198.148438 C 2499.300781 195.609375 2503.519531 193.691406 2508.199219 192.390625 C 2511.648438 191.480469 2516.859375 190.601562 2523.828125 189.75 C 2538.019531 188.058594 2548.46875 186.039062 2555.179688 183.699219 C 2555.238281 181.289062 2555.269531 179.761719 2555.269531 179.109375 C 2555.269531 171.949219 2553.609375 166.898438 2550.289062 163.96875 C 2545.800781 160 2539.128906 158.019531 2530.269531 158.019531 C 2522 158.019531 2515.898438 159.460938 2511.960938 162.359375 C 2508.019531 165.261719 2505.109375 170.390625 2503.21875 177.738281 L 2486.039062 175.398438 C 2487.601562 168.039062 2490.171875 162.101562 2493.75 157.578125 C 2497.328125 153.050781 2502.511719 149.570312 2509.28125 147.128906 C 2516.050781 144.691406 2523.890625 143.460938 2532.808594 143.460938 C 2541.671875 143.460938 2548.859375 144.511719 2554.390625 146.589844 C 2559.929688 148.671875 2564 151.289062 2566.601562 154.449219 C 2569.210938 157.609375 2571.03125 161.601562 2572.070312 166.410156 C 2572.660156 169.410156 2572.949219 174.808594 2572.949219 182.621094 L 2572.949219 206.058594 C 2572.949219 222.410156 2573.320312 232.738281 2574.070312 237.070312 C 2574.820312 241.398438 2576.300781 245.550781 2578.519531 249.519531 L 2560.160156 249.519531 C 2558.328125 245.871094 2557.160156 241.609375 2556.640625 236.730469 "/>
<path fill-rule="nonzero" fill="rgb(12.860107%, 11.213684%, 11.195374%)" fill-opacity="1" d="M 2600 249.519531 L 2600 145.808594 L 2615.820312 145.808594 L 2615.820312 161.53125 C 2619.859375 154.171875 2623.578125 149.320312 2627 146.980469 C 2630.421875 144.640625 2634.179688 143.460938 2638.28125 143.460938 C 2644.210938 143.460938 2650.230469 145.351562 2656.351562 149.128906 L 2650.289062 165.441406 C 2646 162.898438 2641.699219 161.628906 2637.398438 161.628906 C 2633.558594 161.628906 2630.109375 162.789062 2627.050781 165.101562 C 2623.988281 167.410156 2621.808594 170.609375 2620.511719 174.710938 C 2618.550781 180.960938 2617.578125 187.800781 2617.578125 195.21875 L 2617.578125 249.519531 L 2600 249.519531 "/>
<path fill-rule="nonzero" fill="rgb(12.860107%, 11.213684%, 11.195374%)" fill-opacity="1" d="M 2678.519531 197.761719 C 2678.519531 211.039062 2681.308594 220.96875 2686.910156 227.550781 C 2692.511719 234.121094 2699.121094 237.410156 2706.738281 237.410156 C 2714.421875 237.410156 2720.949219 234.269531 2726.320312 227.988281 C 2731.691406 221.699219 2734.378906 212.121094 2734.378906 199.230469 C 2734.378906 185.03125 2731.640625 174.621094 2726.171875 167.980469 C 2720.699219 161.339844 2713.960938 158.019531 2705.960938 158.019531 C 2698.140625 158.019531 2691.621094 161.210938 2686.378906 167.589844 C 2681.140625 173.96875 2678.519531 184.03125 2678.519531 197.761719 Z M 2734.078125 249.519531 L 2734.078125 236.429688 C 2727.511719 246.71875 2717.839844 251.859375 2705.078125 251.859375 C 2696.808594 251.859375 2689.210938 249.578125 2682.28125 245.03125 C 2675.339844 240.46875 2669.96875 234.109375 2666.160156 225.941406 C 2662.351562 217.769531 2660.449219 208.371094 2660.449219 197.761719 C 2660.449219 187.410156 2662.171875 178.019531 2665.628906 169.589844 C 2669.078125 161.160156 2674.25 154.691406 2681.148438 150.199219 C 2688.050781 145.710938 2695.769531 143.460938 2704.300781 143.460938 C 2710.550781 143.460938 2716.109375 144.78125 2721 147.421875 C 2725.878906 150.058594 2729.851562 153.488281 2732.910156 157.71875 L 2732.910156 106.359375 L 2750.390625 106.359375 L 2750.390625 249.519531 L 2734.078125 249.519531 "/>
<path fill-rule="nonzero" fill="rgb(12.860107%, 11.213684%, 11.195374%)" fill-opacity="1" d="M 2833.691406 249.519531 L 2833.691406 145.808594 L 2851.269531 145.808594 L 2851.269531 249.519531 Z M 2833.691406 126.570312 L 2833.691406 106.359375 L 2851.269531 106.359375 L 2851.269531 126.570312 L 2833.691406 126.570312 "/>
<path fill-rule="nonzero" fill="rgb(12.860107%, 11.213684%, 11.195374%)" fill-opacity="1" d="M 2945.699219 211.53125 L 2962.988281 213.78125 C 2961.101562 225.691406 2956.269531 235.019531 2948.488281 241.761719 C 2940.710938 248.488281 2931.148438 251.859375 2919.820312 251.859375 C 2905.628906 251.859375 2894.21875 247.21875 2885.601562 237.949219 C 2876.96875 228.671875 2872.660156 215.371094 2872.660156 198.058594 C 2872.660156 186.859375 2874.511719 177.058594 2878.21875 168.660156 C 2881.929688 160.261719 2887.578125 153.960938 2895.171875 149.761719 C 2902.75 145.558594 2911 143.460938 2919.921875 143.460938 C 2931.179688 143.460938 2940.398438 146.308594 2947.558594 152.011719 C 2954.71875 157.710938 2959.308594 165.800781 2961.328125 176.28125 L 2944.238281 178.910156 C 2942.609375 171.949219 2939.730469 166.710938 2935.601562 163.191406 C 2931.460938 159.679688 2926.460938 157.921875 2920.609375 157.921875 C 2911.75 157.921875 2904.558594 161.089844 2899.019531 167.441406 C 2893.488281 173.789062 2890.71875 183.828125 2890.71875 197.570312 C 2890.71875 211.5 2893.390625 221.621094 2898.730469 227.941406 C 2904.070312 234.25 2911.039062 237.410156 2919.628906 237.410156 C 2926.53125 237.410156 2932.289062 235.289062 2936.910156 231.058594 C 2941.539062 226.828125 2944.46875 220.320312 2945.699219 211.53125 "/>
<path fill-rule="nonzero" fill="rgb(12.860107%, 11.213684%, 11.195374%)" fill-opacity="1" d="M 2989.550781 197.660156 C 2989.550781 210.941406 2992.449219 220.890625 2998.238281 227.5 C 3004.039062 234.109375 3011.328125 237.410156 3020.121094 237.410156 C 3028.839844 237.410156 3036.101562 234.089844 3041.890625 227.449219 C 3047.691406 220.808594 3050.589844 210.691406 3050.589844 197.078125 C 3050.589844 184.25 3047.671875 174.539062 3041.851562 167.929688 C 3036.019531 161.320312 3028.78125 158.019531 3020.121094 158.019531 C 3011.328125 158.019531 3004.039062 161.300781 2998.238281 167.878906 C 2992.449219 174.460938 2989.550781 184.378906 2989.550781 197.660156 Z M 2971.480469 197.660156 C 2971.480469 178.460938 2976.820312 164.230469 2987.5 154.988281 C 2996.421875 147.308594 3007.289062 143.460938 3020.121094 143.460938 C 3034.378906 143.460938 3046.03125 148.140625 3055.078125 157.480469 C 3064.128906 166.820312 3068.648438 179.730469 3068.648438 196.199219 C 3068.648438 209.550781 3066.648438 220.039062 3062.648438 227.691406 C 3058.640625 235.339844 3052.820312 241.28125 3045.171875 245.519531 C 3037.519531 249.75 3029.171875 251.859375 3020.121094 251.859375 C 3005.601562 251.859375 2993.859375 247.210938 2984.910156 237.898438 C 2975.960938 228.589844 2971.480469 215.179688 2971.480469 197.660156 "/>
<path fill-rule="nonzero" fill="rgb(12.860107%, 11.213684%, 11.195374%)" fill-opacity="1" d="M 3089.261719 249.519531 L 3089.261719 145.808594 L 3105.078125 145.808594 L 3105.078125 160.558594 C 3112.699219 149.160156 3123.699219 143.460938 3138.089844 143.460938 C 3144.339844 143.460938 3150.078125 144.589844 3155.320312 146.828125 C 3160.558594 149.078125 3164.488281 152.03125 3167.089844 155.671875 C 3169.691406 159.320312 3171.519531 163.648438 3172.558594 168.660156 C 3173.210938 171.921875 3173.539062 177.609375 3173.539062 185.75 L 3173.539062 249.519531 L 3155.960938 249.519531 L 3155.960938 186.429688 C 3155.960938 179.269531 3155.269531 173.921875 3153.910156 170.371094 C 3152.539062 166.820312 3150.109375 163.988281 3146.628906 161.871094 C 3143.148438 159.761719 3139.058594 158.699219 3134.378906 158.699219 C 3126.890625 158.699219 3120.429688 161.078125 3114.988281 165.828125 C 3109.550781 170.578125 3106.839844 179.601562 3106.839844 192.878906 L 3106.839844 249.519531 L 3089.261719 249.519531 "/>
<g clip-path="url(#clip-0)">
<g clip-path="url(#clip-1)">
<g clip-path="url(#clip-2)">
<path fill-rule="nonzero" fill="url(#radial-pattern-0)" d="M 1987.5 4300.660156 L 1987.5 4393.640625 L 3019.441406 4393.640625 L 3019.441406 4300.660156 Z M 1987.5 4300.660156 "/>
</g>
</g>
</g>
<path fill-rule="nonzero" fill="rgb(12.860107%, 11.213684%, 11.195374%)" fill-opacity="1" d="M 4618.769531 3393.378906 L 3040.070312 3393.378906 C 3023.929688 3457.539062 2965.878906 3505.039062 2896.710938 3505.039062 L 2103.289062 3505.039062 C 2034.121094 3505.039062 1976.070312 3457.539062 1959.929688 3393.378906 L 209.066406 3393.378906 L 209.066406 3396.480469 C 209.066406 3480.050781 276.816406 3547.800781 360.386719 3547.800781 L 390.257812 3547.800781 C 411.042969 3604.460938 465.464844 3644.890625 529.332031 3644.890625 L 4470.671875 3644.890625 C 4534.53125 3644.890625 4588.960938 3604.460938 4609.738281 3547.800781 L 4639.609375 3547.800781 C 4723.191406 3547.800781 4790.929688 3480.050781 4790.929688 3396.480469 L 4790.929688 3393.378906 L 4618.769531 3393.378906 "/>
<path fill-rule="nonzero" fill="rgb(12.860107%, 11.213684%, 11.195374%)" fill-opacity="1" d="M 3996.710938 2990.089844 L 1003.28125 2990.089844 L 1003.28125 1156.71875 L 3996.710938 1156.71875 Z M 2500 951.601562 C 2531.808594 951.601562 2557.601562 977.390625 2557.601562 1009.199219 C 2557.601562 1041.011719 2531.808594 1066.800781 2500 1066.800781 C 2468.191406 1066.800781 2442.398438 1041.011719 2442.398438 1009.199219 C 2442.398438 977.390625 2468.191406 951.601562 2500 951.601562 Z M 4121.550781 855.109375 L 878.453125 855.109375 C 791.488281 855.109375 720.988281 925.609375 720.988281 1012.570312 L 720.988281 3134.230469 C 720.988281 3221.191406 791.488281 3291.691406 878.453125 3291.691406 L 4121.550781 3291.691406 C 4208.511719 3291.691406 4279.011719 3221.191406 4279.011719 3134.230469 L 4279.011719 1012.570312 C 4279.011719 925.609375 4208.511719 855.109375 4121.550781 855.109375 "/>
<path fill-rule="nonzero" fill="rgb(12.860107%, 11.213684%, 11.195374%)" fill-opacity="1" d="M 1652.449219 2812.328125 L 1380.929688 2812.328125 L 1380.929688 2297.789062 L 1652.449219 2297.789062 L 1652.449219 2812.328125 "/>
<path fill-rule="nonzero" fill="rgb(12.860107%, 11.213684%, 11.195374%)" fill-opacity="1" d="M 2307.988281 2812.328125 L 2036.46875 2812.328125 L 2036.46875 1894.519531 L 2307.988281 1894.519531 L 2307.988281 2812.328125 "/>
<path fill-rule="nonzero" fill="rgb(12.860107%, 11.213684%, 11.195374%)" fill-opacity="1" d="M 2963.53125 2812.328125 L 2692.011719 2812.328125 L 2692.011719 2359.839844 L 2963.53125 2359.839844 L 2963.53125 2812.328125 "/>
<path fill-rule="nonzero" fill="rgb(12.860107%, 11.213684%, 11.195374%)" fill-opacity="1" d="M 3619.070312 2812.328125 L 3347.550781 2812.328125 L 3347.550781 2018.601562 L 3619.070312 2018.601562 L 3619.070312 2812.328125 "/>
<path fill-rule="nonzero" fill="rgb(12.860107%, 11.213684%, 11.195374%)" fill-opacity="1" d="M 1516.691406 1864.019531 C 1475.578125 1864.019531 1442.140625 1897.460938 1442.140625 1938.570312 C 1442.140625 1979.671875 1475.578125 2013.109375 1516.691406 2013.109375 C 1557.789062 2013.109375 1591.230469 1979.671875 1591.230469 1938.570312 C 1591.230469 1897.460938 1557.789062 1864.019531 1516.691406 1864.019531 Z M 1516.691406 2081.359375 C 1437.949219 2081.359375 1373.890625 2017.300781 1373.890625 1938.570312 C 1373.890625 1859.828125 1437.949219 1795.769531 1516.691406 1795.769531 C 1595.421875 1795.769531 1659.480469 1859.828125 1659.480469 1938.570312 C 1659.480469 2017.300781 1595.421875 2081.359375 1516.691406 2081.359375 "/>
<path fill-rule="nonzero" fill="rgb(12.860107%, 11.213684%, 11.195374%)" fill-opacity="1" d="M 2172.230469 1460.738281 C 2131.121094 1460.738281 2097.679688 1494.179688 2097.679688 1535.289062 C 2097.679688 1576.390625 2131.121094 1609.839844 2172.230469 1609.839844 C 2213.328125 1609.839844 2246.78125 1576.390625 2246.78125 1535.289062 C 2246.78125 1494.179688 2213.328125 1460.738281 2172.230469 1460.738281 Z M 2172.230469 1678.078125 C 2093.488281 1678.078125 2029.429688 1614.03125 2029.429688 1535.289062 C 2029.429688 1456.550781 2093.488281 1392.488281 2172.230469 1392.488281 C 2250.96875 1392.488281 2315.019531 1456.550781 2315.019531 1535.289062 C 2315.019531 1614.03125 2250.96875 1678.078125 2172.230469 1678.078125 "/>
<path fill-rule="nonzero" fill="rgb(12.860107%, 11.213684%, 11.195374%)" fill-opacity="1" d="M 2827.769531 1926.058594 C 2786.671875 1926.058594 2753.21875 1959.5 2753.21875 2000.609375 C 2753.21875 2041.71875 2786.671875 2075.160156 2827.769531 2075.160156 C 2868.878906 2075.160156 2902.320312 2041.71875 2902.320312 2000.609375 C 2902.320312 1959.5 2868.878906 1926.058594 2827.769531 1926.058594 Z M 2827.769531 2143.398438 C 2749.039062 2143.398438 2684.980469 2079.351562 2684.980469 2000.609375 C 2684.980469 1921.871094 2749.039062 1857.808594 2827.769531 1857.808594 C 2906.511719 1857.808594 2970.570312 1921.871094 2970.570312 2000.609375 C 2970.570312 2079.351562 2906.511719 2143.398438 2827.769531 2143.398438 "/>
<path fill-rule="nonzero" fill="rgb(12.860107%, 11.213684%, 11.195374%)" fill-opacity="1" d="M 3483.308594 1584.828125 C 3442.210938 1584.828125 3408.761719 1618.269531 3408.761719 1659.371094 C 3408.761719 1700.480469 3442.210938 1733.921875 3483.308594 1733.921875 C 3524.421875 1733.921875 3557.859375 1700.480469 3557.859375 1659.371094 C 3557.859375 1618.269531 3524.421875 1584.828125 3483.308594 1584.828125 Z M 3483.308594 1802.171875 C 3404.578125 1802.171875 3340.519531 1738.109375 3340.519531 1659.371094 C 3340.519531 1580.640625 3404.578125 1516.578125 3483.308594 1516.578125 C 3562.050781 1516.578125 3626.109375 1580.640625 3626.109375 1659.371094 C 3626.109375 1738.109375 3562.050781 1802.171875 3483.308594 1802.171875 "/>
<path fill-rule="nonzero" fill="rgb(12.860107%, 11.213684%, 11.195374%)" fill-opacity="1" d="M 1637.089844 1904.558594 L 1601.328125 1846.429688 L 2051.878906 1569.261719 L 2087.628906 1627.390625 L 1637.089844 1904.558594 "/>
<path fill-rule="nonzero" fill="rgb(12.860107%, 11.213684%, 11.195374%)" fill-opacity="1" d="M 2727.820312 1971.511719 L 2251.820312 1633.628906 L 2291.320312 1577.980469 L 2767.320312 1915.859375 L 2727.820312 1971.511719 "/>
<path fill-rule="nonzero" fill="rgb(12.860107%, 11.213684%, 11.195374%)" fill-opacity="1" d="M 2934.609375 1983.460938 L 2903.101562 1922.929688 L 3362.96875 1683.539062 L 3394.488281 1744.078125 L 2934.609375 1983.460938 "/>
</svg>
